<svg xmlns="http://www.w3.org/2000/svg" xmlns:xlink="http://www.w3.org/1999/xlink" xmlns:inkscape="http://www.inkscape.org/namespaces/inkscape" version="1.1" width="2237.4705" height="1953.3981" viewBox="0 0 2237.4705 1953.3981">
<g inkscape:groupmode="layer" inkscape:label="Layer 1">
<path transform="matrix(1,0,0,-1,1,1952.3981)" d="M2235.187 648.0116V548.2843H.381V707.1097H254.5302L.381 1554.2853H303.639L448.5399 1037.7252 686.433 1807.6502H836.7582V1951.1148H1049.5188V1807.6482H1206.0086L1443.9039 1037.7272 1588.8047 1554.2872 1993.1054 1554.2853 2235.187 647.9867ZM1966.254 707.1097 1857.4784 1116.9727 1737.1707 707.1097ZM1253.9296 707.1097 1049.5188 1417.0836V707.1097ZM836.7582 707.1097V1417.0983L632.3474 707.1097Z" fill="#ffffff" fill-rule="evenodd"/>
<path transform="matrix(1,0,0,-1,1,1952.3981)" stroke-width=".5669" stroke-linecap="butt" stroke-miterlimit="22.925585" stroke-linejoin="miter" fill="none" stroke="#403f41" d="M2235.187 648.0116V548.2843H.381V707.1097H254.5302L.381 1554.2853H303.639L448.5399 1037.7252 686.433 1807.6502H836.7582V1951.1148H1049.5188V1807.6482H1206.0086L1443.9039 1037.7272 1588.8047 1554.2872 1993.1054 1554.2853 2235.187 647.9867ZM1966.254 707.1097 1857.4784 1116.9727 1737.1707 707.1097ZM1253.9296 707.1097 1049.5188 1417.0836V707.1097ZM836.7582 707.1097V1417.0983L632.3474 707.1097Z"/>
<path transform="matrix(1,0,0,-1,1,1952.3981)" d="M155.5294 20.7774C140.455 12.6289 122.1202 8.5561 100.5276 8.5561 67.5261 8.5561 42.5724 17.824 25.664 36.3626 8.7588 54.8983 .303 81.4822 .303 116.1111V441.8388H67.5261V111.3265C67.5261 95.7413 70.3791 84.9464 76.0822 78.8329 81.7852 72.7223 89.9337 69.6685 100.5276 69.6685 111.1187 69.6685 119.2671 72.7223 124.973 78.8329 130.6763 84.9464 133.5291 95.7413 133.5291 111.3265V441.8388H200.7522V116.1111C200.7522 100.2246 198.9181 85.9623 195.2498 73.3337L222.7524 45.2228 176.3067 0ZM444.5901 441.8388 443.9786 75.7791H470.2555V14.0553H376.7559V72.7223C366.9769 70.2797 355.9754 69.0571 343.7541 69.0571 310.7526 69.0571 285.7992 78.3249 268.8908 96.8635 251.9853 115.3993 243.5295 141.9831 243.5295 176.612V352.6157H310.7526V172.3354C310.7526 156.8537 313.6056 146.0588 319.3087 139.9453 325.0117 133.8347 333.1602 130.7806 343.7541 130.7806 353.9407 130.7806 361.7819 133.5302 367.2814 139.0297 372.7834 144.5289 375.9406 154.0006 376.7559 167.4476L377.3673 441.8388ZM491.0357 338.9678C491.0357 373.7001 499.2846 400.284 515.7856 418.9229 532.2864 437.4587 557.0359 446.7297 590.0377 446.7297 623.0361 446.7297 647.7888 437.4587 664.2867 418.9229 680.7875 400.3843 689.0394 373.8005 689.0394 339.1716V325.7277H625.4816V343.4482C625.4816 358.9302 622.5282 369.8283 616.6213 376.1456 610.7145 382.46 602.4626 385.6173 591.8717 385.6173 581.2778 385.6173 573.0287 382.46 567.1191 376.1456 561.2122 369.8283 558.2588 358.9302 558.2588 343.4482 558.2588 328.7815 561.5192 315.8484 568.0375 304.6431 574.5557 293.4377 582.7042 282.8469 592.4801 272.8641 602.259 262.8845 612.7495 252.902 623.9548 242.9195 635.1571 232.9367 645.6478 222.0386 655.4265 210.225 665.2052 198.4113 673.3539 184.9643 679.8719 169.89 686.3902 154.8156 689.6509 137.0951 689.6509 116.7225 689.6509 82.0936 681.1951 55.5097 664.2867 36.9711 647.3815 18.4354 622.425 9.1675 589.4263 9.1675 556.4245 9.1675 531.4711 18.3319 514.5627 36.6667 497.6572 55.0018 489.2017 81.4822 489.2017 116.1111V142.3908H552.7593V111.8344C552.7593 96.3527 555.9165 85.5578 562.231 79.4443 568.5454 73.3337 577.0012 70.2797 587.5923 70.2797 598.1862 70.2797 606.6388 73.3337 612.9533 79.4443 619.2677 85.5578 622.425 96.3527 622.425 111.9379 622.425 126.6046 619.1671 139.5377 612.6491 150.7431 606.1309 162.0488 597.9824 172.6396 588.2034 182.6223 578.4248 192.6048 567.934 202.5873 556.7318 212.567 545.5264 222.5497 535.036 233.5482 525.257 245.3649 515.4812 257.1786 507.3327 270.6225 500.8144 285.6969 494.2933 300.8747 491.0357 318.598 491.0357 338.9678ZM725.095 14.0553V339.1716C725.095 373.8005 733.5505 400.3843 750.456 418.9229 767.3644 437.4587 792.3178 446.7297 825.3196 446.7297 858.3211 446.7297 883.2745 437.4587 900.18 418.9229 917.0884 400.3843 925.5441 373.8005 925.5441 339.1716V14.0553H858.3211V343.4482C858.3211 358.9302 855.468 369.7279 849.765 375.8386 844.0588 381.9492 835.9104 385.0058 825.3196 385.0058 814.7256 385.0058 806.5769 381.9492 800.8739 375.8386 795.1708 369.7279 792.3178 358.9302 792.3178 343.4482V14.0553ZM1102.159 13.4439V343.4482C1102.159 358.9302 1099.3059 369.7279 1093.6029 375.8386 1087.897 381.9492 1079.7483 385.0058 1069.1575 385.0058 1058.5636 385.0058 1050.415 381.9492 1044.7118 375.8386 1039.0088 369.7279 1036.1557 358.9302 1036.1557 343.4482V197.3923H968.9329V339.1716C968.9329 373.8005 977.3884 400.3843 994.2939 418.9229 1011.2023 437.4587 1036.1557 446.7297 1069.1575 446.7297 1102.159 446.7297 1127.1127 437.4587 1144.018 418.9229 1160.9263 400.3843 1169.382 373.8005 1169.382 339.1716V132.0004H1194.4358V70.2797H1169.382V13.4439ZM1221.9352 197.3923V334.2838C1221.9352 368.9127 1230.391 395.4966 1247.2963 414.0323 1264.2046 432.5709 1289.1583 441.8388 1322.1598 441.8388H1402.8267C1435.8285 441.8388 1460.7819 432.5709 1477.6903 414.0323 1494.5988 395.4966 1503.0513 368.9127 1503.0513 334.2838V14.0553H1435.8285V338.5602C1435.8285 354.0421 1432.9755 364.8399 1427.2725 370.9505 1421.5691 377.0612 1413.4207 380.1149 1402.8267 380.1149H1397.3275V99.002H1330.1045V380.1149H1322.1598C1311.5659 380.1149 1303.4174 377.0612 1297.7144 370.9505 1292.0114 364.8399 1289.1583 354.0421 1289.1583 338.5602V197.3923ZM1547.0515 13.4439V339.1716C1547.0515 373.8005 1555.5073 400.3843 1572.4125 418.9229 1589.3209 437.4587 1614.2747 446.7297 1647.2761 446.7297 1680.2776 446.7297 1705.2313 437.4587 1722.1365 418.9229 1739.0449 400.3843 1747.5007 373.8005 1747.5007 339.1716V198.0037H1680.2776V343.4482C1680.2776 358.9302 1677.4248 369.7279 1671.7216 375.8386 1666.0158 381.9492 1657.8672 385.0058 1647.2761 385.0058 1636.6823 385.0058 1628.5337 381.9492 1622.8307 375.8386 1617.1277 369.7279 1614.2747 358.9302 1614.2747 343.4482V13.4439ZM1790.8894 14.0553V339.1716C1790.8894 373.8005 1799.3452 400.3843 1816.2505 418.9229 1833.1588 437.4587 1858.1126 446.7297 1891.114 446.7297 1924.1159 446.7297 1949.0692 437.4587 1965.9747 418.9229 1982.883 400.3843 1991.3386 373.8005 1991.3386 339.1716V14.0553H1924.1159V343.4482C1924.1159 358.9302 1921.2627 369.7279 1915.5597 375.8386 1909.8536 381.9492 1901.7051 385.0058 1891.114 385.0058 1880.5202 385.0058 1872.3716 381.9492 1866.6686 375.8386 1860.9656 369.7279 1858.1126 358.9302 1858.1126 343.4482V14.0553ZM2101.9505 116.1111V111.7341C2101.9505 96.0483 2104.8035 85.1502 2110.5067 78.9364 2116.2095 72.7223 2124.358 69.6685 2134.952 69.6685 2145.543 69.6685 2153.6915 72.7223 2159.3978 78.8329 2165.1007 84.9464 2167.9537 95.7413 2167.9537 111.3265V196.9846C2167.9537 212.4666 2165.1007 223.2615 2159.3978 229.4753 2153.6915 235.586 2145.543 238.6429 2134.952 238.6429H2131.8953C2122.1195 237.8276 2114.6827 234.2631 2109.5909 227.9486 2104.496 221.5307 2101.9505 211.244 2101.9505 196.9846V192.7052H2034.7274C2034.7274 225.707 2042.2647 251.2718 2057.3389 269.1989 2042.6723 287.6343 2036.154 311.4686 2037.7843 340.8018V337.7452 342.633 340.8018 342.633C2039.4146 375.738 2048.886 401.4034 2066.1993 419.8385 2083.515 438.1736 2106.4337 446.7297 2134.952 445.5068 2164.693 445.9144 2187.8126 436.8475 2204.3133 418.3118 2220.8143 399.7729 2230.0819 374.0043 2232.1199 341.0056 2232.9349 310.4495 2226.2132 286.6153 2211.9537 269.5034 2227.4359 250.7638 2235.1766 225.2993 2235.1766 193.1128V116.1111C2235.1766 81.4822 2226.721 54.8983 2209.8128 36.3626 2192.907 17.824 2167.9537 8.5561 2134.952 8.5561 2101.9505 8.5561 2076.997 17.824 2060.0887 36.3626 2043.1831 54.8983 2034.7274 81.4822 2034.7274 116.1111ZM2101.9505 342.8368C2101.9505 328.17 2104.496 317.6796 2109.5909 311.3651 2114.6827 305.0507 2122.1195 301.6896 2131.8953 301.282H2134.952 2138.006C2147.377 301.6896 2154.7108 305.0507 2160.0089 311.3651 2165.3045 317.6796 2167.9537 328.17 2167.9537 342.8368 2167.9537 358.3188 2165.1007 369.1165 2159.3978 375.2271 2153.6915 381.3378 2145.543 384.3944 2134.952 384.3944 2124.358 384.3944 2116.2095 381.3378 2110.5067 375.2271 2104.8035 369.1165 2101.9505 358.3188 2101.9505 342.8368" fill="#f5821f"/>
<path transform="matrix(1,0,0,-1,1,1952.3981)" d="M989.1933 1028.7822H897.0831V708.4191H989.1933Z" fill="#f5821f" fill-rule="evenodd"/>
<path transform="matrix(1,0,0,-1,1,1952.3981)" d="M1832.2084 1493.9609 1596.1207 708.4171H1674.6826L1860.4035 1341.123 2028.2752 708.5883 2156.604 708.4171 1946.7765 1493.9609Z" fill="#f5821f" fill-rule="evenodd"/>
<path transform="matrix(1,0,0,-1,1,1952.3981)" d="M569.9494 708.4233 869.0593 1747.3239H853.7769L534.75 708.4233Z" fill="#f5821f" fill-rule="evenodd"/>
<path transform="matrix(1,0,0,-1,1,1952.3981)" d="M1316.325 708.4233 1017.2132 1747.3239H1032.4976L1351.5225 708.4233Z" fill="#f5821f" fill-rule="evenodd"/>
<path transform="matrix(1,0,0,-1,1,1952.3981)" d="M317.1217 708.4191 81.4603 1493.9629H257.9057L444.0183 830.484H447.6427L730.9327 1747.3239H836.0711L502.0251 708.4191Z" fill="#231f20"/>
<path transform="matrix(1,0,0,-1,1,1952.3981)" d="M989.1933 1388.0529H897.0831V1067.6897H989.1933Z" fill="#f5821f" fill-rule="evenodd"/>
<path transform="matrix(1,0,0,-1,1,1952.3981)" d="M989.1933 1747.3239H897.0831V1426.9606H989.1933Z" fill="#f5821f" fill-rule="evenodd"/>
<path transform="matrix(1,0,0,-1,1,1952.3981)" d="M989.1933 1890.7894H897.0831V1796.849H989.1933Z" fill="#231f20" fill-rule="evenodd"/>
<path transform="matrix(1,0,0,-1,1,1952.3981)" stroke-width=".5669" stroke-linecap="butt" stroke-miterlimit="22.925585" stroke-linejoin="miter" fill="none" stroke="#231f20" d="M989.1933 1890.7894H897.0831V1796.849H989.1933Z"/>
<path transform="matrix(1,0,0,-1,1,1952.3981)" d="M1575.3195 708.4191 1810.9811 1493.9629H1634.5358L1448.4229 830.484H1444.7988L1161.5088 1747.3239H1056.3704L1390.4164 708.4191Z" fill="#231f20"/>
<path transform="matrix(1,0,0,-1,1,1952.3981)" d="M81.4606 646.7842H2156.6046V608.6095H81.4606Z" fill="#231f20" fill-rule="evenodd"/>
</g>
</svg>
