<?xml version="1.0" encoding="utf-8"?>
<!-- Generator: Adobe Illustrator 28.0.0, SVG Export Plug-In . SVG Version: 6.00 Build 0)  -->
<svg version="1.1" id="Layer_1" xmlns="http://www.w3.org/2000/svg" xmlns:xlink="http://www.w3.org/1999/xlink" x="0px" y="0px"
	 viewBox="0 0 37.2 38" style="enable-background:new 0 0 37.2 38;" xml:space="preserve">
<style type="text/css">
	.st0{fill:#FDB615;}
</style>
<g>
	<path class="st0" d="M28.8,0.3H7.9C6.4,0.3,5.2,1.5,5.2,3v28.2c0,1.5,1.2,2.7,2.7,2.7h7.3v4h1.3v-4h3.4v4h1.3v-4h7.5
		c1.5,0,2.7-1.2,2.7-2.7V3C31.4,1.5,30.2,0.3,28.8,0.3z M30.1,31.3c0,0.7-0.6,1.3-1.3,1.3H7.9c-0.7,0-1.4-0.6-1.4-1.3V3
		c0-0.7,0.6-1.4,1.4-1.4h20.8c0.7,0,1.3,0.6,1.3,1.4V31.3z"/>
	<path class="st0" d="M18,21.5c4.7,0,8.5-3.8,8.5-8.5c0-4.7-3.8-8.5-8.5-8.5c-2.3,0-4.4,0.9-6,2.5s-2.5,3.7-2.5,6
		C9.6,17.7,13.4,21.5,18,21.5z M25.2,13c0,1.8-0.7,3.4-1.7,4.6l-10-10.1c1.3-1.1,2.9-1.6,4.6-1.6C22,5.8,25.2,9,25.2,13z M12.5,8.4
		l10,10.1c-1.2,1-2.8,1.6-4.5,1.6c-3.9,0-7.1-3.2-7.1-7.1C10.9,11.3,11.5,9.7,12.5,8.4z"/>
	<polygon class="st0" points="22.7,24.2 24.3,25.8 11.8,25.8 13.4,24.2 11.4,24.2 9.2,26.5 11.4,28.7 13.4,28.7 11.8,27.1
		24.3,27.1 22.7,28.7 24.7,28.7 26.9,26.5 24.7,24.2 	"/>
</g>
</svg>
