<?xml version="1.0" encoding="utf-8"?>
<!-- Generator: Adobe Illustrator 28.0.0, SVG Export Plug-In . SVG Version: 6.00 Build 0)  -->
<svg version="1.1" id="Layer_1" xmlns="http://www.w3.org/2000/svg" xmlns:xlink="http://www.w3.org/1999/xlink" x="0px" y="0px"
	 viewBox="0 0 37.2 38" style="enable-background:new 0 0 37.2 38;" xml:space="preserve">
<style type="text/css">
	.st0{fill:#FDB614;}
</style>
<g>
	<g>
		<path class="st0" d="M4.3,34.3c0,0.2,0,0.6,0.3,1c0.1,0.1,0.4,0.3,0.8,0.3h16.8c0.6,0,1.3-0.5,1.3-1.4v-1.6c0-0.8-0.4-1.7-1.3-1.7
			h-0.7v-1c0,0,0-0.1,0-0.2c0-0.4,0-0.8-0.3-1.2c-0.2-0.2-0.5-0.3-0.8-0.3H7.2c-0.1,0-0.3,0-0.4,0.1c-0.6,0.3-1.1,0.8-1.2,1.5
			c0,0.1,0,0.1,0,0.2v1H5.4c-0.3,0-0.6,0.1-0.8,0.3c-0.4,0.3-0.4,0.9-0.4,1.3L4.3,34.3L4.3,34.3z M19.5,30.9H7.6v-0.8h11.9V30.9z
			 M6.2,33.7v-0.8h1h13.1h1.2v0.8H6.2L6.2,33.7z"/>
		<path class="st0" d="M21.6,19.9l9.3,9.3c0.5,0.5,1.2,0.8,2,0.8c0.7,0,1.4-0.3,2-0.8c0.5-0.5,0.8-1.2,0.8-2c0-0.7-0.3-1.4-0.8-2
			L25.6,16l0.3-0.3c0.2,0.2,0.5,0.3,0.8,0.3c0.4,0,0.8-0.2,1.2-0.6l1.2-1.2c0.7-0.7,0.8-1.5,0.2-2.1L20,2.7
			c-0.2-0.2-0.5-0.3-0.8-0.3c-0.4,0-0.9,0.2-1.2,0.6l-1.2,1.2c-0.6,0.6-0.7,1.5-0.2,2l-6.2,6.2C10,12.1,9.8,12,9.5,12
			c-0.4,0-0.9,0.2-1.2,0.6L7,13.9c-0.6,0.6-0.7,1.5-0.2,2l9.4,9.4c0.2,0.2,0.5,0.3,0.8,0.3c0.4,0,0.9-0.2,1.2-0.6l1.2-1.2
			c0.6-0.6,0.7-1.5,0.2-2L21.6,19.9z M23,18.6l1.2-1.2l9.3,9.3c0.1,0.1,0.2,0.4,0.2,0.6c0,0.2-0.1,0.4-0.2,0.6
			c-0.3,0.3-0.8,0.3-1.2,0L23,18.6z M8.7,15l0.7-0.7l5.6,5.6l2.7,2.7l0.2,0.2l-0.7,0.7L8.7,15z M11.6,13.7l6.2-6.2l4.7,4.7l2,2
			l-6.1,6.2l-2-2L11.6,13.7z M27.5,13.1l-0.7,0.7L24,10.9l-5.4-5.4l-0.2-0.2l0.7-0.7L27.5,13.1z"/>
	</g>
</g>
</svg>
