<?xml version="1.0" encoding="utf-8"?>
<!-- Generator: Adobe Illustrator 28.0.0, SVG Export Plug-In . SVG Version: 6.00 Build 0)  -->
<svg version="1.1" id="Layer_1" xmlns="http://www.w3.org/2000/svg" xmlns:xlink="http://www.w3.org/1999/xlink" x="0px" y="0px"
	 viewBox="0 0 37.2 38" style="enable-background:new 0 0 37.2 38;" xml:space="preserve">
<style type="text/css">
	.st0{fill:#FDB615;}
</style>
<g>
	<path class="st0" d="M37.2,21.1c0-5-2-9.5-5.2-12.9c0-0.1-0.1-0.2-0.2-0.3c-0.1-0.1-0.2-0.1-0.3-0.2c-3.3-3.2-7.8-5.1-12.7-5.1
		c-5,0-9.6,2-12.9,5.3c0,0,0,0-0.1,0c0,0,0,0,0,0c-3.4,3.3-5.5,8-5.5,13.1c0,5.1,2,9.8,5.7,13.3c0.2,0.2,0.4,0.2,0.6,0.2
		c0.2,0,0.4-0.1,0.6-0.2l4-4.1c0.3-0.3,0.3-0.8,0-1.2c-0.3-0.3-0.8-0.3-1.2,0l-3.4,3.5C3.7,29.8,2.1,26,1.9,21.9h4.8
		c0.4,0,0.8-0.4,0.8-0.8c0-0.4-0.4-0.8-0.8-0.8H1.9c0.2-4.1,1.8-7.8,4.4-10.6l3.4,3.4c0.2,0.2,0.4,0.2,0.6,0.2
		c0.2,0,0.4-0.1,0.6-0.2c0.3-0.3,0.3-0.8,0-1.2L7.5,8.6c2.8-2.5,6.4-4.1,10.4-4.3v4.8c0,0.4,0.4,0.8,0.8,0.8c0.4,0,0.8-0.4,0.8-0.8
		V4.3c4,0.2,7.6,1.8,10.4,4.3L26.6,12c-0.3,0.3-0.3,0.8,0,1.2c0.2,0.2,0.4,0.2,0.6,0.2c0.2,0,0.4-0.1,0.6-0.2l3.3-3.4
		c2.6,2.8,4.2,6.5,4.4,10.5h-4.8c-0.4,0-0.8,0.4-0.8,0.8c0,0.4,0.4,0.8,0.8,0.8h4.8c-0.2,3.9-1.7,7.5-4.3,10.4l-3.4-3.5
		c-0.3-0.3-0.8-0.3-1.2,0c-0.3,0.3-0.3,0.8,0,1.2l4,4c0.2,0.2,0.4,0.2,0.6,0.2c0.2,0,0.4-0.1,0.5-0.2c0,0,0,0,0,0c0,0,0,0,0,0
		c0,0,0,0,0,0c0,0,0.1-0.1,0.1-0.1C35.3,30.5,37.2,26,37.2,21.1z"/>
	<path class="st0" d="M23.2,9.8c-0.4-0.2-0.9,0-1.1,0.5l-2.9,7.3c-0.2,0-0.4-0.1-0.6-0.1c-2,0-3.6,1.6-3.6,3.6s1.6,3.6,3.6,3.6
		s3.6-1.6,3.6-3.6c0-1.2-0.6-2.3-1.5-2.9l2.9-7.3C23.8,10.5,23.6,10,23.2,9.8z M18.7,23.1c-1.1,0-1.9-0.9-1.9-1.9
		c0-1.1,0.9-1.9,1.9-1.9c0.3,0,0.5,0.1,0.7,0.1c0,0,0,0,0,0c0,0,0,0,0,0c0.7,0.3,1.2,1,1.2,1.8C20.7,22.2,19.8,23.1,18.7,23.1z"/>
</g>
</svg>
