<?xml version="1.0" encoding="utf-8"?>
<!-- Generator: Adobe Illustrator 28.0.0, SVG Export Plug-In . SVG Version: 6.00 Build 0)  -->
<svg version="1.1" id="Layer_1" xmlns="http://www.w3.org/2000/svg" xmlns:xlink="http://www.w3.org/1999/xlink" x="0px" y="0px"
	 viewBox="0 0 37.2 38" style="enable-background:new 0 0 37.2 38;" xml:space="preserve">
<style type="text/css">
	.st0{fill:#FDB615;}
</style>
<g>
	<path class="st0" d="M18.7,0L0.2,32L37,32.1L18.7,0z M18.7,1.8l16.8,29.5L1.7,31.2L18.7,1.8z"/>
	<path class="st0" d="M23.6,14.1v-0.9h-1.2v-1.7h-0.9v1.7h-5.7v-1.7H15v1.7h-1.1v0.9H15v3.5h-1.1v0.9H15v3.5h-1.1v0.9H15v3.5h-1.1
		v0.9H15v2h0.9v-2h5.7v2h0.9v-2h1.2v-0.9h-1.2v-3.5h1.2v-0.9h-1.2v-3.5h1.2v-0.9h-1.2v-3.5H23.6z M21.5,26.3h-5.7v-3.5h5.7V26.3z
		 M21.5,21.9h-5.7v-3.5h5.7V21.9z M21.5,17.6h-5.7v-3.5h5.7V17.6z"/>
</g>
</svg>
