<?xml version="1.0" encoding="utf-8"?>
<!-- Generator: Adobe Illustrator 28.0.0, SVG Export Plug-In . SVG Version: 6.00 Build 0)  -->
<svg version="1.1" id="Layer_1" xmlns="http://www.w3.org/2000/svg" xmlns:xlink="http://www.w3.org/1999/xlink" x="0px" y="0px"
	 viewBox="0 0 37.2 38" style="enable-background:new 0 0 37.2 38;" xml:space="preserve">
<style type="text/css">
	.st0{fill:#FDB615;}
	.st1{fill:none;stroke:#FFFFFF;stroke-miterlimit:10;}
</style>
<g>
	<path class="st0" d="M34.4,7.7h-9.3c0.4-0.5,0.7-1.1,0.7-1.8c0-1.5-1.3-2.8-2.8-2.8h-9c-1.5,0-2.8,1.3-2.8,2.8
		c0,0.7,0.3,1.3,0.7,1.8h-9C1.3,7.7,0,9,0,10.5v3c0,1.5,1.1,2.7,2.6,2.8c-0.5,0.5-0.7,1.2-0.7,1.9v14.3c0,1.5,1.3,2.8,2.8,2.8h27.7
		c1.5,0,2.8-1.3,2.8-2.8V18.2c0-0.7-0.3-1.4-0.7-1.9c1.5,0,2.7-1.3,2.7-2.8v-3C37.2,9,35.9,7.7,34.4,7.7z M12.1,5.9
		c0-1,0.8-1.8,1.8-1.8h9c1,0,1.8,0.8,1.8,1.8c0,0.9-0.7,1.7-1.6,1.8h-9.5C12.8,7.6,12.1,6.8,12.1,5.9z M34.2,32.5
		c0,1-0.8,1.8-1.8,1.8H4.6c-1,0-1.8-0.8-1.8-1.8V18.2c0-1,0.8-1.8,1.8-1.8h2.9v2.6c0,0.8,0.6,1.4,1.4,1.4H11c0.8,0,1.4-0.6,1.4-1.4
		v-2.6h12.2v2.6c0,0.8,0.6,1.4,1.4,1.4h2.1c0.8,0,1.4-0.6,1.4-1.4v-2.6h3c1,0,1.8,0.8,1.8,1.8V32.5z M8.5,18.9v-4.2
		c0-0.2,0.2-0.4,0.4-0.4H11c0.2,0,0.4,0.2,0.4,0.4v4.2c0,0.2-0.2,0.4-0.4,0.4H8.9C8.7,19.3,8.5,19.2,8.5,18.9z M25.5,18.9v-4.2
		c0-0.2,0.2-0.4,0.4-0.4h2.1c0.2,0,0.4,0.2,0.4,0.4v4.2c0,0.2-0.2,0.4-0.4,0.4h-2.1C25.6,19.3,25.5,19.2,25.5,18.9z M36.2,13.5
		c0,1-0.8,1.8-1.8,1.8h-5.1v-0.7c0-0.8-0.6-1.4-1.4-1.4h-2.1c-0.8,0-1.4,0.6-1.4,1.4v0.7H12.3v-0.7c0-0.8-0.6-1.4-1.4-1.4H8.9
		c-0.8,0-1.4,0.6-1.4,1.4v0.7H2.8c-1,0-1.8-0.8-1.8-1.8v-3c0-1,0.8-1.8,1.8-1.8h10.9c0.1,0,0.2,0,0.3,0h9c0.1,0,0.2,0,0.3,0h11.1
		c1,0,1.8,0.8,1.8,1.8V13.5z"/>
	<path class="st0" d="M23.7,24h-2.6v-2.6c0-0.8-0.6-1.4-1.4-1.4h-2.1c-0.8,0-1.4,0.6-1.4,1.4V24h-2.6c-0.8,0-1.4,0.6-1.4,1.4v2.1
		c0,0.8,0.6,1.4,1.4,1.4h2.6v2.6c0,0.8,0.6,1.4,1.4,1.4h2.1c0.8,0,1.4-0.6,1.4-1.4v-2.6h2.6c0.8,0,1.4-0.6,1.4-1.4v-2.1
		C25.1,24.6,24.4,24,23.7,24z M24.1,27.4c0,0.2-0.2,0.4-0.4,0.4h-3.6v3.6c0,0.2-0.2,0.4-0.4,0.4h-2.1c-0.2,0-0.4-0.2-0.4-0.4v-3.6
		h-3.6c-0.2,0-0.4-0.2-0.4-0.4v-2.1c0-0.2,0.2-0.4,0.4-0.4h3.6v-3.6c0-0.2,0.2-0.4,0.4-0.4h2.1c0.2,0,0.4,0.2,0.4,0.4v3.6h3.6
		c0.2,0,0.4,0.2,0.4,0.4V27.4z"/>
</g>
<g>
	<path class="st1" d="M-37.5,29.6"/>
</g>
</svg>
