<?xml version="1.0" encoding="utf-8"?>
<!-- Generator: Adobe Illustrator 28.0.0, SVG Export Plug-In . SVG Version: 6.00 Build 0)  -->
<svg version="1.1" id="Layer_1" xmlns="http://www.w3.org/2000/svg" xmlns:xlink="http://www.w3.org/1999/xlink" x="0px" y="0px"
	 viewBox="0 0 37.2 38" style="enable-background:new 0 0 37.2 38;" xml:space="preserve">
<style type="text/css">
	.st0{fill:#FDB615;}
</style>
<g>
	<path class="st0" d="M12.4,13H0.1v-1.4h11.6V-0.1h1.4v12.4C13.1,12.7,12.8,13,12.4,13z"/>
</g>
<g>
	<path class="st0" d="M24,37l0-12.4c0-0.4,0.3-0.7,0.7-0.7l12.3,0v1.4l-11.6,0l0,11.6H24z"/>
</g>
<g>
	<path class="st0" d="M13,36.8l-1.4,0l0-11.6L0,25.2l0-1.4l12.4,0c0.2,0,0.4,0.1,0.5,0.2c0.1,0.1,0.2,0.3,0.2,0.5L13,36.8z"/>
</g>
<g>
	<path class="st0" d="M37.2,13l-12.4,0c-0.2,0-0.4-0.1-0.5-0.2c-0.1-0.1-0.2-0.3-0.2-0.5l0-12.3l1.4,0l0,11.6l11.6,0L37.2,13z"/>
</g>
<g>
	<rect x="18.1" y="1.9" class="st0" width="1.4" height="3.8"/>
</g>
<g>
	<rect x="18.1" y="7.5" class="st0" width="1.4" height="4.7"/>
</g>
<g>
	<rect x="18.1" y="32.3" class="st0" width="1.4" height="3.8"/>
</g>
<g>
	<rect x="18.1" y="25.6" class="st0" width="1.4" height="4.7"/>
</g>
<g>
	<rect x="2.5" y="17" transform="matrix(2.706683e-03 -1 1 2.706683e-03 -15.7253 22.0359)" class="st0" width="1.4" height="3.8"/>
</g>
<g>
	
		<rect x="8.6" y="16.6" transform="matrix(2.767335e-03 -1 1 2.767335e-03 -9.6208 28.1909)" class="st0" width="1.4" height="4.7"/>
</g>
<g>
	
		<rect x="32.9" y="17.1" transform="matrix(2.706683e-03 -1 1 2.706683e-03 14.4901 52.5027)" class="st0" width="1.4" height="3.8"/>
</g>
<g>
	
		<rect x="26.7" y="16.6" transform="matrix(2.767335e-03 -1 1 2.767335e-03 8.3833 46.3454)" class="st0" width="1.4" height="4.7"/>
</g>
</svg>
