<?xml version="1.0" encoding="utf-8"?>
<!-- Generator: Adobe Illustrator 28.0.0, SVG Export Plug-In . SVG Version: 6.00 Build 0)  -->
<svg version="1.1" id="Layer_1" xmlns="http://www.w3.org/2000/svg" xmlns:xlink="http://www.w3.org/1999/xlink" x="0px" y="0px"
	 viewBox="0 0 37.2 38" style="enable-background:new 0 0 37.2 38;" xml:space="preserve">
<style type="text/css">
	.st0{fill:#FDB615;}
</style>
<g>
	<path class="st0" d="M2.8,1.4C2.3,1.4,2,1.8,2,2.2v34.4c0,0.4,0.3,0.8,0.8,0.8s0.8-0.3,0.8-0.8V2.2C3.5,1.8,3.2,1.4,2.8,1.4z"/>
	<path class="st0" d="M19.3,4.7c0.3,0,0.5-0.2,0.5-0.5v-2c0-0.3-0.2-0.5-0.5-0.5s-0.5,0.2-0.5,0.5v2C18.8,4.5,19,4.7,19.3,4.7z"/>
	<path class="st0" d="M19.3,13.4c0.3,0,0.5-0.2,0.5-0.5V8.5c0-0.3-0.2-0.5-0.5-0.5s-0.5,0.2-0.5,0.5v4.3
		C18.8,13.2,19,13.4,19.3,13.4z"/>
	<path class="st0" d="M19.3,25.4c-0.3,0-0.5,0.2-0.5,0.5v4.3c0,0.3,0.2,0.5,0.5,0.5s0.5-0.2,0.5-0.5v-4.3
		C19.8,25.7,19.6,25.4,19.3,25.4z"/>
	<path class="st0" d="M19.3,22.1c0.3,0,0.5-0.2,0.5-0.5v-4.3c0-0.3-0.2-0.5-0.5-0.5s-0.5,0.2-0.5,0.5v4.3
		C18.8,21.9,19,22.1,19.3,22.1z"/>
	<path class="st0" d="M19.3,34.1c-0.3,0-0.5,0.2-0.5,0.5v2c0,0.3,0.2,0.5,0.5,0.5s0.5-0.2,0.5-0.5v-2C19.8,34.4,19.6,34.1,19.3,34.1
		z"/>
	<path class="st0" d="M35.8,1.4c-0.4,0-0.8,0.3-0.8,0.8v34.4c0,0.4,0.3,0.8,0.8,0.8s0.8-0.3,0.8-0.8V2.2C36.6,1.8,36.2,1.4,35.8,1.4
		z"/>
	<path class="st0" d="M32.1,2.4H24c-0.4,0-0.8,0.3-0.8,0.8v13c0,0.4,0.3,0.8,0.8,0.8h8.1c0.4,0,0.8-0.3,0.8-0.8v-13
		C32.9,2.8,32.6,2.4,32.1,2.4z M31.4,15.4h-6.6V3.9h6.6V15.4z"/>
	<path class="st0" d="M32.1,31h-3.7c0-0.7,0-1.9,0-3.1c0-2.3-1.2-4-3-4.4c-0.2,0-0.6-0.1-1.5-0.2c-0.9-0.1-2.2-0.3-3.9-0.5
		c-0.8-0.1-1.7-0.2-2.6-0.4c-5-0.8-5.3-5.1-5.3-6.2h1.8L11.8,13l-2.4,3.2h1.7c0,1.3,0.4,6.3,6.1,7.2c0.9,0.2,1.8,0.3,2.6,0.4
		c1.7,0.2,3,0.4,3.9,0.5c0.7,0.1,1.3,0.2,1.4,0.2c1.3,0.3,2.2,1.7,2.3,3.5c0,1.2,0,2.4,0,3.1H24c-0.4,0-0.8,0.3-0.8,0.8v4.9
		c0,0.4,0.3,0.8,0.8,0.8s0.8-0.3,0.8-0.8v-4.2h6.6v4.2c0,0.4,0.3,0.8,0.8,0.8c0.4,0,0.8-0.3,0.8-0.8v-4.9C32.9,31.3,32.6,31,32.1,31
		z"/>
</g>
</svg>
