<?xml version="1.0" encoding="utf-8"?>
<!-- Generator: Adobe Illustrator 28.0.0, SVG Export Plug-In . SVG Version: 6.00 Build 0)  -->
<svg version="1.1" id="Layer_1" xmlns="http://www.w3.org/2000/svg" xmlns:xlink="http://www.w3.org/1999/xlink" x="0px" y="0px"
	 viewBox="0 0 37.2 38" style="enable-background:new 0 0 37.2 38;" xml:space="preserve">
<style type="text/css">
	.st0{fill:#FDB615;}
</style>
<g>
	<path class="st0" d="M35,15.8L19.9,0.7c-0.9-0.9-2.5-0.9-3.4,0L1.4,15.8c-0.9,0.9-0.9,2.5,0,3.4L15.2,33v4.4h1.4v-3
		c0.5,0.4,1.1,0.7,1.7,0.7c0.6,0,1.2-0.2,1.7-0.7v3h1.4V33L35,19.2C36,18.3,36,16.7,35,15.8z M34,18.2L18.9,33.3
		c-0.4,0.4-1.1,0.4-1.5,0L2.4,18.2c-0.4-0.4-0.4-1.1,0-1.5L17.5,1.7c0.2-0.2,0.5-0.3,0.7-0.3c0.3,0,0.5,0.1,0.7,0.3L34,16.8
		C34.4,17.2,34.4,17.8,34,18.2z"/>
	<path class="st0" d="M20.6,7.9h-4.4c-0.4,0-0.8,0.4-0.8,0.8v5.9h-4.6c-0.4,0-0.8,0.4-0.8,0.8v4.2c0,0.3,0.2,0.5,0.5,0.5h5v5.9
		c0,0.4,0.4,0.8,0.8,0.8h4.4c0.4,0,0.8-0.4,0.8-0.8V8.6C21.4,8.2,21.1,7.9,20.6,7.9z M20.5,25.7h-4.1V20v-0.6V19h-5.4v-3.6h5.4V15
		v-0.5V8.8h4.1V25.7z"/>
</g>
</svg>
